<svg width="296" height="66" viewBox="0 0 296 66" fill="none" xmlns="http://www.w3.org/2000/svg">
<path d="M12.3117 52.4384C17.1475 44.0071 21.6919 35.388 26.4283 26.8973C29.3979 21.574 32.2332 14.8861 38.7259 13.2788C40.5057 12.8382 42.0866 13.0321 43.8745 13.1096C42.4447 6.96335 34.3499 5.61772 30.063 9.37525C27.3233 11.7767 25.7894 16.1105 23.9373 19.2123C19.4542 26.72 15.0131 34.3679 10.8738 42.0795C9.34182 44.9336 8.80071 50.6511 12.3117 52.4384ZM53.0523 29.1575C51.1845 21.6629 42.9401 12.6802 35.631 19.7612C32.6482 22.6507 31.047 27.1868 28.9788 30.7397C24.4909 38.4497 19.385 46.4767 15.8933 54.6986C18.6097 55.8561 22.1405 54.7495 24.1343 52.6642C26.1935 50.5106 27.4475 47.5415 28.9276 44.9794C31.1589 41.1173 33.7209 37.2735 35.592 33.226H36.0397C37.2727 36.5152 39.5694 39.7065 41.3664 42.7192C44.7739 48.4313 47.3947 56.4467 55.5146 54.9247C54.8939 52.1854 52.5495 49.2819 51.0589 46.9179C48.5142 42.8821 46.2549 38.6599 43.7789 34.5822C42.748 32.8847 41.8014 31.1167 40.7294 29.448C40.3061 28.7891 39.4783 27.883 39.7174 27.0274C40.9821 22.5019 45.0371 28.7434 45.8231 30.0616C50.2783 37.5337 54.2958 45.5746 59.3201 52.6644C61.58 50.7784 62.9979 47.1012 64.388 44.5274C66.3561 40.8831 69.4886 37.1813 70.7364 33.226H71.1841C72.7322 36.5703 74.8451 39.755 76.6852 42.9452L80.4277 49.5C82.0636 52.3423 83.8502 54.1595 87.0774 54.9789C87.7505 55.1498 90.4844 55.5987 90.4942 54.4211C90.5086 52.7089 88.1219 50.0777 87.3035 48.5959C84.3366 43.2234 80.9708 38.0526 77.8555 32.7652C77.0113 31.3321 72.6725 25.7463 76.7803 25.565C79.3351 25.452 81.3336 30.4976 82.3855 32.3219C85.1433 37.104 88.0346 41.8083 90.8367 46.565C92.0979 48.706 93.2693 51.6956 95.136 53.3425C96.2185 51.0008 97.3086 48.7828 97.1305 46.1096C96.9418 43.2766 95.283 41.04 93.9393 38.6507C91.5546 34.4109 89.0902 30.2187 86.6801 25.9931C84.2893 21.8018 81.8545 16.4831 76.1088 17.1113C71.3676 17.6296 69.0208 22.0034 66.954 25.7671C64.4408 30.3439 61.5133 34.8114 59.3201 39.5548C58.649 38.4479 57.739 37.2559 57.5716 35.9383C57.2047 33.0524 60.119 29.5192 61.4802 27.1233C64.529 21.7581 67.3354 15.0116 73.8703 13.2814C75.7164 12.7926 77.3872 13.0709 79.2427 13.1096C77.1768 7.41218 70.0572 5.3245 65.4023 9.24514C63.806 10.5895 62.9066 12.6766 61.897 14.4657C60.2734 17.3433 58.5198 20.1512 56.9421 23.0548C55.9948 24.7986 54.7759 28.1698 53.0523 29.1575Z" fill="#1B7EF5"/>
<path d="M43 25L59.5 52.5L57.75 54L56.5 54.5C56.5 54.5 55.6638 54.9786 55 55C55.4 55 45.1667 37.6667 40 29C39.3334 27.8333 38.4 25 40 25H43Z" fill="#1B7EF5"/>
<path d="M16 54.5C16.9765 55.716 10.1443 51.5167 12.5 52C21.2517 35.9774 30.1011 17.31 34 15.5C37.8989 13.69 43.0992 14.6801 43.5 13C43.9008 11.3199 45.2418 18.0174 44.5 18C43.7582 17.9826 36.7461 18.1337 33.5 22.5C33.4504 22.4704 15.0234 53.2839 16 54.5Z" fill="#1B7EF5"/>
<path d="M34.5 15.5V14L42.8522 12.0348L43 11L50.5 23.5L47 22L42.5 14.5L42.5385 14.2308L34.5 15.5Z" fill="#1B7EF5"/>
<path d="M55 34L59.5 40L73 19L84 21.5C84 21.5 77.5132 9.76976 79 13C80.4868 16.2302 79.0504 13.3983 78 11.5H70L55 34Z" fill="#1B7EF5"/>
<path d="M79 12.5L78.5 13L79.5 14.5H80L79 12.5Z" fill="#1B7EF5"/>
<path d="M78.9398 24L73.5 26.5L89.8193 55C90.4156 55.2778 94.0803 54.6172 95 53.5C97.1033 51.7301 85.5344 36.0093 78.9398 24Z" fill="#1B7EF5"/>
<path d="M90.2109 55C89.5956 55.2403 88.7265 55.2029 88 55L90.5 54.5C90.4378 54.6635 90.8263 54.7597 90.2109 55Z" fill="#1B7EF5"/>
<path d="M33.5 24.5L30.5 25L15.5 53.5L16 54.5L33.5 27.5V24.5Z" fill="#1B7EF5"/>
<path d="M151.509 17.08V45H145.909V26.84L138.429 45H134.189L126.669 26.84V45H121.069V17.08H127.429L136.309 37.84L145.189 17.08H151.509ZM155.605 33.84C155.605 31.6 156.045 29.6133 156.925 27.88C157.832 26.1467 159.045 24.8133 160.565 23.88C162.112 22.9467 163.832 22.48 165.725 22.48C167.378 22.48 168.818 22.8133 170.045 23.48C171.298 24.1467 172.298 24.9867 173.045 26V22.84H178.685V45H173.045V41.76C172.325 42.8 171.325 43.6667 170.045 44.36C168.792 45.0267 167.338 45.36 165.685 45.36C163.818 45.36 162.112 44.88 160.565 43.92C159.045 42.96 157.832 41.6133 156.925 39.88C156.045 38.12 155.605 36.1067 155.605 33.84ZM173.045 33.92C173.045 32.56 172.778 31.4 172.245 30.44C171.712 29.4533 170.992 28.7067 170.085 28.2C169.178 27.6667 168.205 27.4 167.165 27.4C166.125 27.4 165.165 27.6533 164.285 28.16C163.405 28.6667 162.685 29.4133 162.125 30.4C161.592 31.36 161.325 32.5067 161.325 33.84C161.325 35.1733 161.592 36.3467 162.125 37.36C162.685 38.3467 163.405 39.1067 164.285 39.64C165.192 40.1733 166.152 40.44 167.165 40.44C168.205 40.44 169.178 40.1867 170.085 39.68C170.992 39.1467 171.712 38.4 172.245 37.44C172.778 36.4533 173.045 35.28 173.045 33.92ZM189.755 26.28C190.475 25.1067 191.408 24.1867 192.555 23.52C193.728 22.8533 195.061 22.52 196.555 22.52V28.4H195.075C193.315 28.4 191.981 28.8133 191.075 29.64C190.195 30.4667 189.755 31.9067 189.755 33.96V45H184.155V22.84H189.755V26.28ZM198.886 33.92C198.886 31.6267 199.353 29.6267 200.286 27.92C201.22 26.1867 202.513 24.8533 204.166 23.92C205.82 22.96 207.713 22.48 209.846 22.48C212.593 22.48 214.86 23.1733 216.646 24.56C218.46 25.92 219.673 27.84 220.286 30.32H214.246C213.926 29.36 213.38 28.6133 212.606 28.08C211.86 27.52 210.926 27.24 209.806 27.24C208.206 27.24 206.94 27.8267 206.006 29C205.073 30.1467 204.606 31.7867 204.606 33.92C204.606 36.0267 205.073 37.6667 206.006 38.84C206.94 39.9867 208.206 40.56 209.806 40.56C212.073 40.56 213.553 39.5467 214.246 37.52H220.286C219.673 39.92 218.46 41.8267 216.646 43.24C214.833 44.6533 212.566 45.36 209.846 45.36C207.713 45.36 205.82 44.8933 204.166 43.96C202.513 43 201.22 41.6667 200.286 39.96C199.353 38.2267 198.886 36.2133 198.886 33.92ZM244.989 33.44C244.989 34.24 244.936 34.96 244.829 35.6H228.629C228.762 37.2 229.322 38.4533 230.309 39.36C231.296 40.2667 232.509 40.72 233.949 40.72C236.029 40.72 237.509 39.8267 238.389 38.04H244.429C243.789 40.1733 242.562 41.9333 240.749 43.32C238.936 44.68 236.709 45.36 234.069 45.36C231.936 45.36 230.016 44.8933 228.309 43.96C226.629 43 225.309 41.6533 224.349 39.92C223.416 38.1867 222.949 36.1867 222.949 33.92C222.949 31.6267 223.416 29.6133 224.349 27.88C225.282 26.1467 226.589 24.8133 228.269 23.88C229.949 22.9467 231.882 22.48 234.069 22.48C236.176 22.48 238.056 22.9333 239.709 23.84C241.389 24.7467 242.682 26.04 243.589 27.72C244.522 29.3733 244.989 31.28 244.989 33.44ZM239.189 31.84C239.162 30.4 238.642 29.2533 237.629 28.4C236.616 27.52 235.376 27.08 233.909 27.08C232.522 27.08 231.349 27.5067 230.389 28.36C229.456 29.1867 228.882 30.3467 228.669 31.84H239.189ZM254.676 15.4V45H249.076V15.4H254.676ZM265.809 15.4V45H260.209V15.4H265.809ZM269.902 33.84C269.902 31.6 270.342 29.6133 271.222 27.88C272.129 26.1467 273.342 24.8133 274.862 23.88C276.409 22.9467 278.129 22.48 280.022 22.48C281.675 22.48 283.115 22.8133 284.342 23.48C285.595 24.1467 286.595 24.9867 287.342 26V22.84H292.982V45H287.342V41.76C286.622 42.8 285.622 43.6667 284.342 44.36C283.089 45.0267 281.635 45.36 279.982 45.36C278.115 45.36 276.409 44.88 274.862 43.92C273.342 42.96 272.129 41.6133 271.222 39.88C270.342 38.12 269.902 36.1067 269.902 33.84ZM287.342 33.92C287.342 32.56 287.075 31.4 286.542 30.44C286.009 29.4533 285.289 28.7067 284.382 28.2C283.475 27.6667 282.502 27.4 281.462 27.4C280.422 27.4 279.462 27.6533 278.582 28.16C277.702 28.6667 276.982 29.4133 276.422 30.4C275.889 31.36 275.622 32.5067 275.622 33.84C275.622 35.1733 275.889 36.3467 276.422 37.36C276.982 38.3467 277.702 39.1067 278.582 39.64C279.489 40.1733 280.449 40.44 281.462 40.44C282.502 40.44 283.475 40.1867 284.382 39.68C285.289 39.1467 286.009 38.4 286.542 37.44C287.075 36.4533 287.342 35.28 287.342 33.92Z" fill="#1B7EF5"/>
</svg>
